<svg id="Layer_1" data-name="Layer 1" xmlns="http://www.w3.org/2000/svg" viewBox="0 0 1920 1920"><defs><style>.cls-1,.cls-4{fill:#fff;}.cls-1{stroke:#e5e5e4;stroke-miterlimit:10;stroke-width:2px;}.cls-2{fill:#007752;}.cls-3{fill:#d3a964;}</style></defs><title>BKC Logo</title><circle class="cls-1" cx="960" cy="960" r="736.12"/><path class="cls-2" d="M1101.08,1370.81c-226.88,0-410.81-183.92-410.81-410.81S874.2,549.19,1101.08,549.19A409.86,409.86,0,0,1,1245,575.1a472.63,472.63,0,0,0-278.06-89.91C704.68,485.19,492.1,697.77,492.1,960s212.58,474.81,474.81,474.81A472.63,472.63,0,0,0,1245,1344.9,409.86,409.86,0,0,1,1101.08,1370.81Z"/><path class="cls-3" d="M1175.11,719.37h81.35c1.1.78,1,2,1,3.1v30.8q0,24.06,0,48.13a11.36,11.36,0,0,1-.1,2.59c8.42-14.65,17-29.44,25.53-44.23l16-27.73c1.49-2.58,2.08-2.79,4.58-1.34,16.35,9.51,32.78,18.9,49.15,28.4q8.61,5,17.26,10c2.62,1.51,2.75,2,1.26,4.56q-20.33,35.34-40.75,70.61a1.52,1.52,0,0,0-.36,1c6.21-3.55,12.34-7.11,18.48-10.66q26.51-15.29,53-30.58c2.54-1.47,3.09-1.27,4.58,1.31q19.17,33.21,38.34,66.43c1.43,2.47,1.36,3-1.16,4.43-8.69,5.08-17.43,10.07-26.14,15.11-14.11,8.18-28.26,16.28-42.35,24.48-1.1.64-2.24,1.22-3.42,1.93h81.69c4.22,0,4-.32,4,4.06q0,38.25,0,76.51c0,2.7-.06,2.78-2.82,2.78q-40.58,0-81.14,0a8.72,8.72,0,0,1-1.93-.11c14.78,8.46,29.55,17,44.35,25.58q13.69,7.89,27.36,15.82c.29.17.59.31.88.49,1.9,1.21,2.09,1.81,1,3.72-2,3.48-4,7-6,10.47q-16.2,28-32.33,56c-.16.29-.32.59-.49.88-1.29,2.11-1.84,2.3-4,1.08-4.79-2.7-9.54-5.47-14.3-8.23l-57.18-33a.37.37,0,0,0-.42,0q8.21,14.33,16.49,28.59,12.32,21.35,24.66,42.7c1.53,2.65,1.42,3.11-1.32,4.7-13.35,7.74-26.74,15.42-40.1,23.15q-13.23,7.67-26.5,15.28c-2.34,1.33-2.77,1.22-4.11-1.11q-11.41-19.79-22.85-39.57c-5.83-10.12-11.7-20.21-17.52-30.33a18.75,18.75,0,0,1-1.56-3.06s0-.08.08-.12l-.07,0a9.32,9.32,0,0,1,.32,3.11v80.33c0,.4,0,.81,0,1.21.09,1.42-.49,2.17-2,2-.4,0-.8,0-1.2,0-25.88,0-51.77,0-77.65,0-2.32,0-2.51-.15-2.51-2.48q0-41,0-82a6.08,6.08,0,0,1,.14-1.59c.13-.24-.34.09-.08.07.1,0,.11.06,0,.18q-20.87,36-41.6,72c-1.47,2.56-1.81,2.68-4.35,1.22q-22.79-13.05-45.51-26.24c-6.62-3.83-13.26-7.63-19.87-11.49-.4-.23-.82-.45-1.22-.7-2.55-1.57-2.7-2-1.22-4.55q15.76-27.39,31.61-54.74c3.14-5.45,6.33-10.87,9.62-16.77-4.82,2.56-9.1,5.15-13.43,7.65q-29,16.69-57.88,33.42c-2.82,1.63-3.34,1.51-4.89-1.18q-19.17-33.21-38.34-66.42c-1.45-2.52-1.4-2.91,1.17-4.41q18.18-10.58,36.42-21,17.63-10.15,35.25-20.33c-.46-.33-1-.14-1.41-.14H979.23c-1.24,0-2.57.23-3.46-1V918.71c.84-1.19,2.1-1,3.29-1h78.51a12.94,12.94,0,0,1,2.85.12q-16.62-9.55-33.19-19.15l-38.34-22.14c-.29-.17-.58-.33-.86-.51-2.16-1.37-2.3-1.84-1-4q12.51-21.72,25-43.41c4.42-7.67,8.88-15.32,13.29-23,1.7-3,2.15-3.09,5.16-1.35,23.63,13.66,47.28,27.31,71.22,41.13-2-3.89-4.17-7.36-6.2-10.89q-17.51-30.33-35-60.65c-1.57-2.72-1.41-3.26,1.38-4.87,22-12.76,44.05-25.41,66-38.17,2.65-1.54,3.21-1.42,4.76,1.25q13.62,23.51,27.18,47.06c4.78,8.29,9.57,16.58,14.39,25a9.63,9.63,0,0,1-.13-2.3V722.86C1174.11,721.62,1173.85,720.27,1175.11,719.37Z"/><path class="cls-4" d="M1382.72,938.87h47.9c2.58,0,2.58,0,2.58,2.65,0,12,0,24,0,36,0,1.78-.4,2.4-2.32,2.39q-48.39-.09-96.8,0a5.73,5.73,0,0,1-3-.84q-16-9.29-32-18.52c-2-1.16-2-1.18.08-2.39q15.93-9.2,31.85-18.41a6.5,6.5,0,0,1,3.42-.91Q1358.57,938.9,1382.72,938.87Z"/><path class="cls-4" d="M1048.6,979.9c-15.92,0-31.85,0-47.77,0-1.85,0-2.52-.38-2.5-2.38.09-12.06.07-24.12,0-36.18,0-1.7.38-2.27,2.2-2.27q48.06.09,96.13,0a5.82,5.82,0,0,1,3,.81q16,9.25,32,18.48c1.88,1.08,1.88,1.12.07,2.17q-16.07,9.3-32.14,18.6a5.7,5.7,0,0,1-3,.72Z"/><path class="cls-4" d="M1236.3,792.68q0,23.94,0,47.9a6.13,6.13,0,0,1-.74,3.26q-9.37,16.17-18.69,32.39c-1.08,1.87-1.12,1.87-2.19,0q-9.32-16.11-18.61-32.21a5.77,5.77,0,0,1-.82-3q0-48.42,0-96.83c0-1.74.42-2.28,2.23-2.27q18.32.12,36.64,0c1.79,0,2.24.51,2.23,2.26C1236.27,760.33,1236.3,776.51,1236.3,792.68Z"/><path class="cls-4" d="M1195.28,1126q0-23.94,0-47.89a6.83,6.83,0,0,1,1-3.61q9.24-15.9,18.41-31.85c1.14-2,1.17-2,2.3,0q9.28,16.1,18.58,32.21a5.77,5.77,0,0,1,.81,3q0,48.3,0,96.6c0,1.74-.42,2.31-2.23,2.3q-18.31-.11-36.63,0c-1.78,0-2.25-.53-2.24-2.28C1195.31,1158.32,1195.28,1142.15,1195.28,1126Z"/><path class="cls-4" d="M1256.56,1029.9l5,2.82q14.37,8.28,28.76,16.54a6.15,6.15,0,0,1,2.4,2.32q24.22,42.09,48.54,84.13c.82,1.42.55,2-.78,2.71q-16,9.18-32,18.53c-1.44.84-2,.46-2.75-.82q-24.14-41.91-48.33-83.78a5.51,5.51,0,0,1-.9-2.82c0-12.74,0-25.49,0-38.24C1256.47,1031,1256.51,1030.62,1256.56,1029.9Z"/><path class="cls-4" d="M1123.68,919.13c-6.13,0-12.26,0-18.4,0a5.7,5.7,0,0,1-3-.81q-41.67-24.11-83.37-48.16c-1.48-.85-1.5-1.48-.68-2.87q9.22-15.76,18.29-31.65c.77-1.36,1.33-1.53,2.7-.73q41.74,24.15,83.56,48.21a5.42,5.42,0,0,1,2.06,2.08q9.2,16,18.44,32c1.08,1.88,1.07,1.89-1.19,1.89Z"/><path class="cls-4" d="M1286.4,1000.06h3.23q17.82,0,35.64,0a6.58,6.58,0,0,1,3.43.86q41.88,24.2,83.79,48.32c1.25.72,1.71,1.26.84,2.75q-9.4,16-18.59,32.23c-.75,1.32-1.29,1.44-2.58.69q-42.11-24.41-84.26-48.72a4.72,4.72,0,0,1-1.88-1.75q-9.58-16.63-19.19-33.27A10.48,10.48,0,0,1,1286.4,1000.06Z"/><path class="cls-4" d="M1175.11,868.13c0,6.24,0,12.49,0,18.73,0,1.54-.11,2.11-1.77,1.13q-16.24-9.47-32.57-18.81a5.43,5.43,0,0,1-2-2.18q-24.22-42-48.49-83.93c-.82-1.41-.57-2,.77-2.72q16.07-9.18,32-18.52c1.41-.83,2-.54,2.72.78q24.21,42.1,48.52,84.15a5.51,5.51,0,0,1,.76,2.85C1175.1,855.78,1175.11,862,1175.11,868.13Z"/><path class="cls-4" d="M1256.46,888.8V874.2c0-8.05,0-16.11,0-24.16a7.07,7.07,0,0,1,1-3.8q24.15-41.78,48.24-83.59c.83-1.46,1.47-1.57,2.89-.74q15.89,9.3,31.86,18.41c1.46.84,1.56,1.45.73,2.88q-24.21,41.76-48.3,83.56a6.17,6.17,0,0,1-2.25,2.48Q1274.3,878.6,1258,888C1257.64,888.27,1257.22,888.44,1256.46,888.8Z"/><path class="cls-4" d="M1175.11,1030v6.11q0,16.31,0,32.61a6.77,6.77,0,0,1-.92,3.62q-24.2,41.88-48.32,83.79c-.82,1.43-1.43,1.62-2.88.77q-16-9.34-32-18.52c-1.33-.75-1.43-1.3-.68-2.59q24.33-42,48.59-84.11a5.14,5.14,0,0,1,1.87-2q16.56-9.52,33.11-19.08C1174.14,1030.38,1174.45,1030.27,1175.11,1030Z"/><path class="cls-4" d="M1145.24,1000.26c-2.55,4.4-5,8.62-7.42,12.85-4,6.84-7.93,13.68-11.85,20.55a7.21,7.21,0,0,1-2.78,2.78q-41.81,24.12-83.55,48.31c-1.37.8-2,.88-2.89-.67q-9.12-16.1-18.47-32.06c-.81-1.4-.6-2,.75-2.77q42-24.15,84-48.38a4.65,4.65,0,0,1,2.42-.83c13,0,26,0,39,0A5.57,5.57,0,0,1,1145.24,1000.26Z"/><path class="cls-4" d="M1307,918.71h-18.73c-2.09,0-2.1,0-1-1.89q9.3-16.11,18.6-32.22a5.19,5.19,0,0,1,1.93-2q42.24-24.39,84.44-48.82c1.22-.71,1.75-.52,2.44.68q9.3,16.23,18.73,32.38c.73,1.25.43,1.76-.74,2.43q-42.15,24.32-84.27,48.7a5.45,5.45,0,0,1-2.86.71C1319.38,918.7,1313.21,918.71,1307,918.71Z"/><path class="cls-4" d="M1215.25,979.86c-5.73,1.31-10.57-2.29-14.27-5.89-4.52-4.4-6.62-10.53-5.83-17.44.56-4.82,3.76-8,5.66-12,5.38-3.82,11-6.61,18-5.79,4.72.56,7.87,3.78,11.82,5.58,3.85,5.45,6.71,11.13,5.74,18.2S1227.27,981,1215.25,979.86Z"/><path class="cls-4" d="M1236.29,883.85q0,8,0,16c0,1.14-1,1.31-1.74,1.73-3.85,2.3-3.8,2.25-6.13-1.54a3,3,0,0,1,0-3.62c2.52-4.17,4.9-8.44,7.34-12.67Z"/><path class="cls-4" d="M1291.42,979.9c-5.37,0-10.52,0-15.67,0-1.32,0-1.68-.85-2.18-1.7-2.31-4-2.28-3.89,1.63-6.28a2.87,2.87,0,0,1,3.43,0c3.64,2.24,7.39,4.31,11.08,6.48A3.17,3.17,0,0,1,1291.42,979.9Z"/><path class="cls-4" d="M1140.22,938.88h16.06c1.13,0,1.31,1,1.73,1.73,2.3,3.86,2.26,3.81-1.52,6.14a3,3,0,0,1-3.61,0c-3.7-2.28-7.51-4.39-11.26-6.58C1141.14,939.89,1140.47,939.79,1140.22,938.88Z"/><path class="cls-4" d="M1291.37,939.37c-4.57,2.65-9.15,5.27-13.69,7.94a1.64,1.64,0,0,1-1.84-.15c-4.89-2.6-4.95-2.86-1.81-7.4a1.63,1.63,0,0,1,1.42-.89h15.82Z"/><path class="cls-4" d="M1195.29,1034.83q0-7.92,0-15.83a1.48,1.48,0,0,1,.9-1.42c1.53-.82,3.27-2.53,4.52-2.22,1.61.39,2,2.92,3,4.46a1.13,1.13,0,0,1,0,1.3q-4,6.92-8,13.85Z"/><path class="cls-4" d="M1235.85,1035c-1.44-2.45-2.88-4.89-4.31-7.35-1-1.79-2-3.67-3.14-5.36-.92-1.32-.72-2.32,0-3.6,2.26-3.75,2.17-3.71,6-1.62a3.19,3.19,0,0,1,1.91,3.29c-.11,4.81,0,9.63,0,14.44Z"/><path class="cls-4" d="M1140.24,979.41c4.55-2.65,9.12-5.28,13.65-7.95a1.57,1.57,0,0,1,1.67,0c4.85,2.37,5,3,2,7.49a1.62,1.62,0,0,1-1.42.91h-15.78Z"/><path class="cls-4" d="M1195.51,883.36c2.27,3.94,4.3,7.44,6.32,10.95,2.45,4.24,2.41,4.23-.24,8.43-.56.89-1,1-1.87.46-4.43-2.41-4.44-2.38-4.44-7.42q0-5.71,0-11.43A8.42,8.42,0,0,1,1195.51,883.36Z"/><path class="cls-4" d="M1160.65,904l13.86,7.94c.55.32.57.83.61,1.38.43,5.42.07,5.77-5.34,5.45a1.7,1.7,0,0,1-1.63-.88c-2.59-4.52-5.21-9-7.81-13.52Z"/><path class="cls-4" d="M1271.13,904.42c-2.65,4.59-5.24,9-7.77,13.49-.57,1-1.44.78-2.27.79-4.65,0-4.61,0-4.65-4.54a2.75,2.75,0,0,1,1.57-2.87c3.82-2.06,7.55-4.3,11.32-6.44A1.93,1.93,0,0,1,1271.13,904.42Z"/><path class="cls-4" d="M1160.33,1014.44c2.58-4.46,5.18-8.91,7.74-13.39a1.88,1.88,0,0,1,1.77-1c5.45-.26,5.67,0,5.28,5.36,0,.55,0,1.08-.59,1.39l-13.88,8Z"/><path class="cls-4" d="M1270.64,1014.66l-6.85-4c-1.91-1.1-3.77-2.3-5.73-3.28a2.67,2.67,0,0,1-1.63-2.83c.06-4.54,0-4.47,4.47-4.56a2.9,2.9,0,0,1,3,1.71c2.32,4.2,4.77,8.33,7.16,12.48Z"/></svg>